<svg width="22" height="22" viewBox="0 0 22 22" fill="none" xmlns="http://www.w3.org/2000/svg">
<path d="M11.0008 6.8767C11.6883 4.1628 14.2849 2.77707 19.9383 2.75172C20.0286 2.75138 20.1182 2.76893 20.2018 2.80336C20.2853 2.83779 20.3613 2.88841 20.4252 2.95232C20.4891 3.01623 20.5397 3.09215 20.5741 3.17572C20.6086 3.25928 20.6261 3.34884 20.6258 3.43921V15.8142C20.6258 15.9965 20.5533 16.1714 20.4244 16.3003C20.2955 16.4292 20.1206 16.5016 19.9383 16.5016C14.4383 16.5016 12.3135 17.6107 11.0008 19.2516M11.0008 6.8767C10.3133 4.1628 7.71673 2.77707 2.06336 2.75172C1.97298 2.75138 1.88343 2.76893 1.79986 2.80336C1.7163 2.83779 1.64037 2.88841 1.57646 2.95232C1.51256 3.01623 1.46193 3.09215 1.4275 3.17572C1.39307 3.25928 1.37552 3.34884 1.37586 3.43921V15.7312C1.37586 16.1558 1.63883 16.5016 2.06336 16.5016C7.56333 16.5016 9.69586 17.6188 11.0008 19.2516M11.0008 6.8767V19.2516" stroke="#35DDFE" stroke-width="0.784106" stroke-linecap="round" stroke-linejoin="round"/>
</svg>
