<svg width="22" height="22" viewBox="0 0 22 22" fill="none" xmlns="http://www.w3.org/2000/svg">
<path d="M11.0011 2.75209C6.44475 2.75209 2.75112 6.44572 2.75112 11.002C2.75112 12.4823 3.14083 13.8699 3.82204 15.0705C3.86071 15.1384 3.88548 15.2133 3.89492 15.2908C3.90436 15.3684 3.89829 15.4471 3.87704 15.5222L2.84148 19.1632L6.48246 18.1277C6.55777 18.1063 6.63658 18.1002 6.71428 18.1096C6.79198 18.1191 6.86703 18.1439 6.93503 18.1827C8.1746 18.886 9.57589 19.2545 11.0011 19.252C15.5574 19.252 19.251 15.5584 19.251 11.002C19.251 6.44572 15.5574 2.75209 11.0011 2.75209ZM1.57256 11.002C1.57256 5.79515 5.79418 1.57353 11.0011 1.57353C16.208 1.57353 20.4296 5.79515 20.4296 11.002C20.4296 16.209 16.208 20.4306 11.0011 20.4306C9.45647 20.4328 7.93517 20.0539 6.57203 19.3274L2.82419 20.3936C2.65595 20.4414 2.478 20.4434 2.30873 20.3994C2.13946 20.3554 1.98501 20.267 1.86134 20.1434C1.73767 20.0197 1.64926 19.8652 1.60526 19.696C1.56126 19.5267 1.56326 19.3487 1.61106 19.1805L2.67648 15.4327C1.94953 14.0691 1.57035 12.5473 1.57256 11.002Z" fill="white"/>
</svg>
