<svg width="157" height="160" viewBox="0 0 157 160" fill="none" xmlns="http://www.w3.org/2000/svg">
<g filter="url(#filter0_dd_74_2)">
<rect x="20" y="24" width="117" height="112" rx="12" fill="url(#paint0_linear_74_2)"/>
<path d="M104.99 76.6201L88.4101 70.5898L82.3799 54.0099C82.1276 53.3161 81.6679 52.7168 81.0632 52.2933C80.4586 51.8698 79.7382 51.6426 79 51.6426C78.2617 51.6426 77.5414 51.8698 76.9367 52.2933C76.3321 52.7168 75.8724 53.3161 75.6201 54.0099L69.5898 70.5898L53.0099 76.6201C52.3161 76.8724 51.7168 77.3321 51.2933 77.9367C50.8698 78.5414 50.6426 79.2617 50.6426 80C50.6426 80.7382 50.8698 81.4586 51.2933 82.0632C51.7168 82.6679 52.3161 83.1276 53.0099 83.3799L69.5898 89.4101L75.6201 105.99C75.8724 106.684 76.3321 107.283 76.9367 107.707C77.5414 108.13 78.2617 108.357 79 108.357C79.7382 108.357 80.4586 108.13 81.0632 107.707C81.6679 107.283 82.1276 106.684 82.3799 105.99L88.4101 89.4101L104.99 83.3799C105.684 83.1276 106.283 82.6679 106.707 82.0632C107.13 81.4586 107.357 80.7382 107.357 80C107.357 79.2617 107.13 78.5414 106.707 77.9367C106.283 77.3321 105.684 76.8724 104.99 76.6201ZM103.933 80.4872L86.6751 86.7624C86.4625 86.8396 86.2695 86.9625 86.1096 87.1225C85.9496 87.2824 85.8267 87.4754 85.7495 87.688L79.4744 104.946C79.4347 105.039 79.3686 105.118 79.2843 105.174C79.2 105.23 79.1011 105.259 79 105.259C78.8989 105.259 78.8 105.23 78.7157 105.174C78.6313 105.118 78.5652 105.039 78.5256 104.946L72.2505 87.688C72.1732 87.4754 72.0503 87.2824 71.8904 87.1225C71.7305 86.9625 71.5375 86.8396 71.3249 86.7624L54.0669 80.4744C53.9739 80.4347 53.8946 80.3686 53.8389 80.2843C53.7831 80.2 53.7534 80.1011 53.7534 80C53.7534 79.8989 53.7831 79.8 53.8389 79.7157C53.8946 79.6313 53.9739 79.5652 54.0669 79.5256L71.3249 73.2505C71.5375 73.1732 71.7305 73.0503 71.8904 72.8904C72.0503 72.7305 72.1732 72.5375 72.2505 72.3249L78.5256 55.0669C78.5652 54.9739 78.6313 54.8946 78.7157 54.8389C78.8 54.7831 78.8989 54.7534 79 54.7534C79.1011 54.7534 79.2 54.7831 79.2843 54.8389C79.3686 54.8946 79.4347 54.9739 79.4744 55.0669L85.7495 72.3249C85.8267 72.5375 85.9496 72.7305 86.1096 72.8904C86.2695 73.0503 86.4625 73.1732 86.6751 73.2505L103.933 79.5256C104.026 79.5652 104.105 79.6313 104.161 79.7157C104.217 79.8 104.247 79.8989 104.247 80C104.247 80.1011 104.217 80.2 104.161 80.2843C104.105 80.3686 104.026 80.4347 103.933 80.4744V80.4872Z" fill="white"/>
<path d="M98.7996 62.8409H96.1596V60.2009C96.1596 59.8508 96.0205 59.515 95.773 59.2675C95.5254 59.0199 95.1897 58.8809 94.8396 58.8809C94.4895 58.8809 94.1537 59.0199 93.9062 59.2675C93.6586 59.515 93.5196 59.8508 93.5196 60.2009L93.5664 62.8409H90.8796C90.5295 62.8409 90.1937 62.9799 89.9462 63.2275C89.6986 63.475 89.5596 63.8108 89.5596 64.1609C89.5596 64.5109 89.6986 64.8467 89.9462 65.0942C90.1937 65.3418 90.5295 65.4809 90.8796 65.4809L93.5664 65.434L93.5196 68.1209C93.5196 68.4709 93.6586 68.8067 93.9062 69.0542C94.1537 69.3018 94.4895 69.4409 94.8396 69.4409C95.1897 69.4409 95.5254 69.3018 95.773 69.0542C96.0205 68.8067 96.1596 68.4709 96.1596 68.1209V65.434L98.7996 65.4809C99.1497 65.4809 99.4854 65.3418 99.733 65.0942C99.9805 64.8467 100.12 64.5109 100.12 64.1609C100.12 63.8108 99.9805 63.475 99.733 63.2275C99.4854 62.9799 99.1497 62.8409 98.7996 62.8409Z" fill="white"/>
<circle cx="63.1599" cy="95.8405" r="4.28" stroke="white" stroke-width="2"/>
</g>
<defs>
<filter id="filter0_dd_74_2" x="0" y="0" width="157" height="160" filterUnits="userSpaceOnUse" color-interpolation-filters="sRGB">
<feFlood flood-opacity="0" result="BackgroundImageFix"/>
<feColorMatrix in="SourceAlpha" type="matrix" values="0 0 0 0 0 0 0 0 0 0 0 0 0 0 0 0 0 0 127 0" result="hardAlpha"/>
<feOffset dy="4"/>
<feGaussianBlur stdDeviation="10"/>
<feComposite in2="hardAlpha" operator="out"/>
<feColorMatrix type="matrix" values="0 0 0 0 0.568627 0 0 0 0 0.25098 0 0 0 0 0.917647 0 0 0 0.5 0"/>
<feBlend mode="normal" in2="BackgroundImageFix" result="effect1_dropShadow_74_2"/>
<feColorMatrix in="SourceAlpha" type="matrix" values="0 0 0 0 0 0 0 0 0 0 0 0 0 0 0 0 0 0 127 0" result="hardAlpha"/>
<feOffset dy="-4"/>
<feGaussianBlur stdDeviation="10"/>
<feComposite in2="hardAlpha" operator="out"/>
<feColorMatrix type="matrix" values="0 0 0 0 0.462745 0 0 0 0 0.835294 0 0 0 0 0.909804 0 0 0 0.5 0"/>
<feBlend mode="normal" in2="effect1_dropShadow_74_2" result="effect2_dropShadow_74_2"/>
<feBlend mode="normal" in="SourceGraphic" in2="effect2_dropShadow_74_2" result="shape"/>
</filter>
<linearGradient id="paint0_linear_74_2" x1="131" y1="136" x2="20" y2="24" gradientUnits="userSpaceOnUse">
<stop stop-color="#EC4899"/>
<stop offset="1" stop-color="#8459E2"/>
</linearGradient>
</defs>
</svg>
